<svg xmlns="http://www.w3.org/2000/svg" data-name="Layer 1" width="744.84799" height="747.07702" viewBox="0 0 744.84799 747.07702" xmlns:xlink="http://www.w3.org/1999/xlink">
  <path d="M972.424,384.93851a393.41394,393.41394,0,0,1-54.82622,201.67441c-.74774,1.243-1.50554,2.47542-2.27443,3.69992-8.Mickey Mouse,1.84417-1.69138,3.67836-2.55349,5.49743-17.90113-5.75249-28.09683-34.65938-28.09683-34.65938L887.81881,563.51a386.7396,386.7396,0,0,1-27.42517,43.84172l-.02171-.03349L821.48855,577.8053l27.42518-49.73129a398.47392,398.47392,0,0,1-30.92175,33.72044l-.43336-.4119-44.96508-42.8L815.048,489.0072a397.58312,397.58312,0,0,1-39.59463,31.57415L731.57,480.9437A213.93312,213.93312,0,0,1,756.21893,439.323l-22.1853-31.61169,31.9297,26.20037a214.49987,214.49987,0,0,1,22.90457-222.79056q5.3225-5.91923,11.15878-11.3859L781.84829,255.2148l33.35116-43.4394A214.2881,214.2881,0,0,1,840.35311,242.543q3.61563-5.16347,7.5809-10.0766l-25.95457-34.69032,34.49489,28.6241c23.98689-25.84394,56.04367-41.76553,91.24131-42.06552,79.3078-.67641,143.8508,69.7293,143.98937,156.69564C1091.7493,366.72191,1028.221,375.96541,972.424,384.93851Z" transform="translate(-227.57601 -76.46149)" fill="#f2f2f2"/>
  <circle cx="370.5645" cy="285.97984" r="7.57169" fill="#f2f2f2"/>
  <circle cx="214.91419" cy="366.80984" r="5.42264" fill="#f2f2f2"/>
  <circle cx="394.64433" cy="227.43712" r="17.23555" fill="#f2f2f2"/>
  <path d="M415.17453,563.99581c7.72409,3.18053,16.13119,3.9604,24.4275,4.78333l61.3171,6.11057c5.231.52052,10.63685,1.04105,15.33312-.4588,4.6963-1.49984,8.69388-5.05315,9.57836-9.85349a4.1365,4.1365,0,0,0-2.7374-5.05315c-4.13442-1.3473-8.43123.43932-12.185,2.27629-13.92868,6.81212-30.03069,6.86927-45.0884,4.99288a155.99013,155.99013,0,0,1-24.66009-5.841c-7.3049-2.29578-14.49636-5.23651-20.64808-9.675A40.69494,40.69494,0,0,1,404.41139,520.506c-.4674-1.04106-2.01051-.61129-1.54,1.22441,3.08462,11.34349,11.56552,20.0981,21.16565,26.08471A74.0377,74.0377,0,0,0,415.17453,563.99581Z" transform="translate(-227.57601 -76.46149)" fill="#f2f2f2"/>
  <polygon points="324.932 747.077 311.771 747.076 305.372 695.035 324.934 695.035 324.932 747.077" fill="#ffb8b8"/>
  <path d="M302.243,743.27621h25.29656a0,0,0,0,1,0,0v15.57364a0,0,0,0,1,0,0H286.66937a0,0,0,0,1,0,0v0A15.57363,15.57363,0,0,1,302.243,743.27621Z" fill="#2f2e41"/>
  <polygon points="399.565 736.523 387.929 742.906 361.107 698.523 378.259 689.207 399.565 736.523" fill="#ffb8b8"/>
  <path d="M605.30633,815.26623h25.29656a0,0,0,0,1,0,0v15.57364a0,0,0,0,1,0,0H589.73271a0,0,0,0,1,0,0v0A15.57362,15.57362,0,0,1,605.30633,815.26623Z" transform="translate(-324.64393 305.59438) rotate(-27.67211)" fill="#2f2e41"/>
  <circle cx="341.77739" cy="381.84478" r="26.15238" fill="#ffb8b8"/>
  <path d="M525.15519,704.26623l-11.56541,22.51964s15.62515,15.92881-2.60817,31.45337l-1.7659,17.659H489.79322l-9.05438-67.89224-32.682-66.83513,20.614-4.729L485.6143,668.3122l15.26683-38.8211Z" transform="translate(-227.57601 -76.46149)" fill="#2f2e41"/>
  <path d="M544.01781,752.88731s-.978-6.50178,2.77259-7.15651,4.49657-2.09,4.49657-2.09l.13807-1.76148a1.27215,1.27215,0,0,1,.84849-1.09579l2.611-.93249s6.09059-42.33477-4.91753-52.07481-15.64528-12.00406-15.64528-12.00406l-12.00406-12.54935-21.33829,1.00191-11.044,7.1648-3.82065,6.81983,10.5545,62.03192,3.04342,28.614.18342,7.33659a8.65688,8.65688,0,0,0,1.77638,5.0212l.75489.97008s13.12663,3.38463,13.50986-.17611-.76325-7.20265-.76325-7.20265C516.82438,757.55139,544.01781,752.88731,544.01781,752.88731Z" transform="translate(-227.57601 -76.46149)" fill="#2f2e41"/>
  <path d="M467.40333,566.48649s-9.82478,1.09164-12.5481,0-13.63974,1.09164-11.45807,8.73315,36.57169,3.27493,36.57169,3.27493Z" transform="translate(-227.57601 -76.46149)" fill="#2f2e41"/>
  <path d="M474.50515,697.08129l13.39619,17.76314,3.93579-18.3474-10.47914-13.8324a10.73991,10.73991,0,0,0-9.0132-4.88788h0A10.73992,10.73992,0,0,0,474.50515,697.08129Z" transform="translate(-227.57601 -76.46149)" fill="#ffb8b8"/>
  <path d="M522.79591,676.0321l-28.41718-67.404-23.58228-79.19406s-9.82478-17.46626-13.63974-14.73142,8.73314,18.558,8.73314,18.558l-7.09968,62.04084,31.20839,79.50737,17.82069,26.97405Z" transform="translate(-227.57601 -76.46149)" fill="#2f2e41"/>
  <path d="M538.98614,517.03135a9.17064,9.17064,0,0,0-4.7364-11.90756L514.287,455.88384l-18.6061,4.32865,20.83,47.27229a9.21738,9.21738,0,0,0,22.52521,9.54657Z" transform="translate(-227.57601 -76.46149)" fill="#ffb8b8"/>
  <path d="M504.2941,490.04283l-24.67392,4.48357s-.6366-16.91313,9.82478-20.19641,21.10054-9.82477,21.10054-9.82477,12.45806-3.82658,18.261,7.82477S525.424,506.9309,525.424,506.9309l-8.73314-15.2064Z" transform="translate(-227.57601 -76.46149)" fill="#575a89"/>
  <path d="M560.8784,557.88024c-3.14974,2.23894-17.22244,6.55343-20.5086,7.84618a1.86181,1.86181,0,0,1-.23228.09642l-2.101-31.70257a11.408,11.408,0,0,1,7.20083-11.54861l.1121-.04675,30.203,26.30359a1.8597,1.8597,0,0,1-.08848.61515,8.12281,8.12281,0,0,1-14.58556,8.43659Z" transform="translate(-227.57601 -76.46149)" fill="#575a89"/>
  <path d="M551.04266,434.68339c-3.10059-5.3311-7.31817-9.48885-13.45928-9.33355l-1.14227-3.18686a18.85482,18.85482,0,0,0-20.75254-13.19541l-3.93749.78229a18.85484,18.85484,0,0,0-15.09638,18.726V435.508a18.85484,18.85484,0,0,0,18.91414,18.84822h19.62422a18.85484,18.85484,0,0,0,18.82561-21.73l-.51957-2.90321C553.43718,429.71921,552.6598,437.39506,551.04266,434.68339Z" transform="translate(-227.57601 -76.46149)" fill="#2f2e41"/>
  <rect x="34.11639" y="469.23792" width="476.36685" height="222.11304" fill="#3f3d56"/>
  <path d="M261.54917,767.81246h-5.45142V700.52983a21.70746,21.70746,0,0,1,21.70746-21.70746H387.91507a21.70748,21.70748,0,0,1,21.70747,21.70746V767.81246Z" transform="translate(-227.57601 -76.46149)" fill="#2f2e41"/>
  <path d="M263.13913,700.35057V761.1339a9.76352,9.76352,0,0,0,9.76352,9.76352h124.4381a9.76352,9.76352,0,0,0,9.76352-9.76352V700.35057a9.767,9.767,0,0,0-9.76352-9.76352h-6.16706V700.134a5.87517,5.87517,0,0,1-5.87517,5.87516H298.94488A5.87518,5.87518,0,0,1,293.06971,700.134V690.58705H272.90265A9.767,9.767,0,0,0,263.13913,700.35057Z" transform="translate(-227.57601 -76.46149)" fill="#0d6efd"/>
  <polygon points="349.402 494.926 349.402 504.089 168.489 504.089 168.489 472.743 168.919 472.743 168.919 494.926 349.402 494.926" fill="#3f3d56"/>
  <path d="M506.22761,580.914a98.03098,98.03098,0,0,0-98.85,108.71c.82681,7.53511,1.03806,20.614,8.75616,22.61612,6.813,1.7686,13.12384-7.01725,17.65821-11.36583A98.2,98.2,0,0,0,443.42038,591.052c7.89266-3.11037,17.17909,2.64847,14.87876,11.35166" transform="translate(-227.57601 -76.46149)" opacity="0.1"/>
  <circle cx="50.38354" cy="575.39651" r="17.93406" fill="#f2f2f2"/>
  <circle cx="112.57151" cy="575.39651" r="17.93406" fill="#f2f2f2"/>
  <circle cx="112.57151" cy="620.77509" r="17.93406" fill="#f2f2f2"/>
  <path d="M354.245,708.75429a28.23649,28.23649,0,0,1-18.30356,26.44683,27.60484,27.60484,0,0,1-3.16614.88943,28.23662,28.23662,0,0,1-3.09553-56.26067,27.60454,27.60454,0,0,1,3.16614.88944A28.23653,28.23653,0,0,1,354.245,708.75429Z" transform="translate(-227.57601 -76.46149)" fill="#f2f2f2"/>
  <polygon points="189.245 674.464 187.245 674.464 187.245 673.464 186.245 673.464 186.245 674.464 184.245 674.464 184.245 675.464 186.245 675.464 186.245 677.464 187.245 677.464 187.245 675.464 189.245 675.464 189.245 674.464" fill="#f2f2f2"/>
  <polygon points="378.245 651.464 376.245 651.464 376.245 650.464 375.245 650.464 375.245 651.464 373.245 651.464 373.245 652.464 375.245 652.464 375.245 654.464 376.245 654.464 376.245 652.464 378.245 652.464 378.245 651.464" fill="#f2f2f2"/>
  <path d="M340.19736,708.75429a28.23653,28.23653,0,0,0,18.30356,26.44683,29.50735,29.50735,0,0,0,3.16614.88943l.41005.09218a28.23661,28.23661,0,0,0,3.09553-56.26066,29.50766,29.50766,0,0,0-3.16614.88943l-.41005.09218A28.23649,28.23649,0,0,0,340.19736,708.75429Zm3.93389,0a24.3026,24.3026,0,0,1,15.77632-22.77077c.26515-.95545.52588-1.90656.7812-2.86235a25.23971,25.23971,0,0,0-18.39218,22.83773,25.53789,25.53789,0,0,0,17.60871,25.60276c-.25533-.95111-.51605-1.90683-.7812-2.86235A24.30261,24.30261,0,0,1,344.13125,708.75429Z" transform="translate(-227.57601 -76.46149)" fill="#fff"/>
  <polygon points="131.245 522.464 129.245 522.464 129.245 521.464 128.245 521.464 128.245 522.464 126.245 522.464 126.245 523.464 128.245 523.464 128.245 525.464 129.245 525.464 129.245 523.464 131.245 523.464 131.245 522.464" fill="#fff"/>
  <polygon points="171.245 531.464 169.245 531.464 169.245 530.464 168.245 530.464 168.245 531.464 166.245 531.464 166.245 532.464 168.245 532.464 168.245 534.464 169.245 534.464 169.245 532.464 171.245 532.464 171.245 531.464" fill="#fff"/>
  <polygon points="142.245 562.464 140.245 562.464 140.245 561.464 139.245 561.464 139.245 562.464 137.245 562.464 137.245 563.464 139.245 563.464 139.245 565.464 140.245 565.464 140.245 563.464 142.245 563.464 142.245 562.464" fill="#fff"/>
  <circle cx="174.06578" cy="575.39651" r="17.93406" fill="#f2f2f2"/>
  <path d="M391.5588,650.84661A28.23649,28.23649,0,0,1,373.25524,677.29344a27.60454,27.60454,0,0,1-3.16614.88944,28.23661,28.23661,0,0,1-3.09553-56.26066,27.60454,27.60454,0,0,1,3.16614.88943A28.2365,28.2365,0,0,1,391.5588,650.84661Z" transform="translate(-227.57601 -76.46149)" fill="#f2f2f2"/>
  <path d="M377.51119,650.84661a28.23653,28.23653,0,0,0,18.30356,26.44683,29.507,29.507,0,0,0,3.16613.88944l.41006.09217a28.2366,28.2366,0,0,0,3.09553-56.26066,29.50731,29.50731,0,0,0-3.16614.88943l-.41005.09218A28.23649,28.23649,0,0,0,377.51119,650.84661Zm3.93389,0a24.3026,24.3026,0,0,1,15.77632-22.77077c.26516-.95545.52589-1.90656.78121-2.86235a25.2397,25.2397,0,0,0-18.39219,22.83773,25.53789,25.53789,0,0,0,17.60871,25.60276c-.25532-.95111-.51605-1.90683-.7812-2.86235A24.3026,24.3026,0,0,1,381.44508,650.84661Z" transform="translate(-227.57601 -76.46149)" fill="#fff"/>
  <polygon points="179.245 475.464 177.245 475.464 177.245 474.464 176.245 474.464 176.245 475.464 174.245 475.464 174.245 476.464 176.245 476.464 176.245 478.464 177.245 478.464 177.245 476.464 179.245 476.464 179.245 475.464" fill="#fff"/>
  <polygon points="190.245 504.464 188.245 504.464 188.245 503.464 187.245 503.464 187.245 504.464 185.245 504.464 185.245 505.464 187.245 505.464 187.245 507.464 188.245 507.464 188.245 505.464 190.245 505.464 190.245 504.464" fill="#fff"/>
  <path d="M778.948,212.94539l-8.69975-8.77848a12.23381,12.23381,0,0,0-14.65976-1.521l-28.59658,17.69663V170.4056a12.262,12.262,0,0,0-12.262-12.262H610.866a12.262,12.262,0,0,0-12.262,12.262V284.58925a12.262,12.262,0,0,0,12.262,12.262h103.89271a12.262,12.262,0,0,0,12.262-12.262V249.50952l44.10057-27.31346A12.23382,12.23382,0,0,0,778.948,212.94539Z" transform="translate(-227.57601 -76.46149)" fill="#3f3d56"/>
  <path d="M743.43582,223.59765l-30.75057,19.044a.9459.9459,0,0,0-.43059.77528v32.00721c0,.33228,17.77694.60174.60174.60174h60.64595a.60171.60171,0,0,0,.60173-.60174V234.0764a.60171.60171,0,0,0-.60173-.60174H745.4305A3.05747,3.05747,0,0,1,743.43582,223.59765Z" transform="translate(-227.57601 -76.46149)" fill="#fff"/>
  <path d="M675.9886,180.10737c-1.83984,0-3.33642,1.82157-3.33642,4.06815v86.25581c0,2.24635,1.49658,4.06782,3.33642,4.06782h76.74731c1.83961,0,3.33643-1.82147,3.33643-4.06782V184.17552c0-2.24658-1.49682-4.06815-3.33643-4.06815Z" transform="translate(-227.57601 -76.46149)" fill="#fff"/>
  <circle cx="587.86061" cy="165.5" r="6" fill="#fff"/>
  <path d="M971.424,384.93851H227.576V383.93851H971.99514A1.57162,1.57162,0,0,1,971.424,384.93851Z" transform="translate(-227.57601 -76.46149)" fill="#cacaca"/>
  <path d="M375.31721,682.0164H349.03144v-2.204h26.28577Zm-26.28577-43.6h26.28577v2.204H349.03144Zm0-41.39451h26.28577v2.204H349.03144Zm0-41.39355h26.28577v2.204H349.03144Z" transform="translate(-227.57601 -76.46149)" opacity="0.2"/>
</svg>